<svg width="40" height="41" viewBox="0 0 40 41" fill="none" xmlns="http://www.w3.org/2000/svg">
<g clip-path="url(#clip0_672_1764)">
<path d="M29.9996 31.1122H10.0004C9.98628 29.4583 10.3491 27.8228 11.0614 26.3301C11.7738 24.8373 12.8168 23.5265 14.1113 22.497C14.4806 22.2071 14.9475 22.0707 15.4147 22.1163C15.882 22.1618 16.3137 22.3857 16.6201 22.7414C17.509 23.8014 18.7067 24.4458 20.0066 24.4458C21.3066 24.4458 22.5154 23.7903 23.4198 22.7103C23.7184 22.3638 24.1391 22.1458 24.5943 22.1015C25.0496 22.0572 25.5044 22.1901 25.8642 22.4725C27.1665 23.5021 28.2162 24.8158 28.9329 26.3132C29.6496 27.8107 30.0145 29.4521 29.9996 31.1122Z" fill="white"/>
<path d="M25.1112 15.6686C25.1201 16.9786 24.8217 18.2724 24.2401 19.4462C23.3223 21.2528 21.7668 22.4417 20.0003 22.4417C18.2337 22.4417 16.6671 21.2528 15.7604 19.4462C15.1788 18.2724 14.8804 16.9786 14.8894 15.6686C14.8894 11.9265 17.1781 8.89111 20.0003 8.89111C22.8224 8.89111 25.1112 11.9265 25.1112 15.6686Z" fill="white"/>
</g>
<defs>
<clipPath id="clip0_672_1764">
<rect width="22" height="22" fill="white" transform="translate(9 9.00146)"/>
</clipPath>
</defs>
</svg>
